<?xml version="1.0" encoding="UTF-8" standalone="no"?>
<!DOCTYPE svg PUBLIC "-//W3C//DTD SVG 1.1//EN"
 "http://www.w3.org/Graphics/SVG/1.1/DTD/svg11.dtd">
<!-- Generated by graphviz version 14.0.4 (20251115.1723)
 -->
<!-- Title: AgenticFlow Pages: 1 -->
<svg width="636pt" height="279pt"
 viewBox="0.00 0.00 636.00 279.00" xmlns="http://www.w3.org/2000/svg" xmlns:xlink="http://www.w3.org/1999/xlink">
<g id="graph0" class="graph" transform="scale(1 1) rotate(0) translate(43.2 236.2)">
<title>AgenticFlow</title>
<polygon fill="white" stroke="none" points="-43.2,43.2 -43.2,-236.2 593.25,-236.2 593.25,43.2 -43.2,43.2"/>
<g id="clust1" class="cluster">
<title>cluster_agents</title>
<path fill="#fafafa" stroke="#d1d5db" d="M221.85,-8C221.85,-8 411.45,-8 411.45,-8 417.45,-8 423.45,-14 423.45,-20 423.45,-20 423.45,-173 423.45,-173 423.45,-179 417.45,-185 411.45,-185 411.45,-185 221.85,-185 221.85,-185 215.85,-185 209.85,-179 209.85,-173 209.85,-173 209.85,-20 209.85,-20 209.85,-14 215.85,-8 221.85,-8"/>
</g>
<!-- INPUT -->
<g id="node1" class="node">
<title>INPUT</title>
<polygon fill="#f3f4f6" stroke="#9ca3af" points="155.85,-116.7 0,-116.7 0,-75.3 161.85,-75.3 161.85,-110.7 155.85,-116.7"/>
<polyline fill="none" stroke="#9ca3af" points="155.85,-116.7 155.85,-110.7"/>
<polyline fill="none" stroke="#9ca3af" points="161.85,-110.7 155.85,-110.7"/>
<text xml:space="preserve" text-anchor="middle" x="80.92" y="-99.05" font-family="Helvetica Neue" font-size="11.00">PROBLEM_STATEMENT.md</text>
<text xml:space="preserve" text-anchor="middle" x="80.92" y="-85.55" font-family="Helvetica Neue" font-size="11.00">config.yaml</text>
</g>
<!-- S -->
<g id="node2" class="node">
<title>S</title>
<ellipse fill="#eef2ff" stroke="#6366f1" cx="257.25" cy="-96" rx="23.4" ry="23.4"/>
<text xml:space="preserve" text-anchor="middle" x="257.25" y="-90.5" font-family="Helvetica Neue" font-size="20.00">🧠</text>
</g>
<!-- INPUT&#45;&gt;S -->
<g id="edge3" class="edge">
<title>INPUT&#45;&gt;S</title>
<path fill="none" stroke="#555555" d="M162.12,-96C162.12,-96 183.1,-96 200.63,-96"/>
<polygon fill="#555555" stroke="#555555" points="200.34,-98.8 208.34,-96 200.34,-93.2 200.34,-98.8"/>
</g>
<!-- I1 -->
<g id="node3" class="node">
<title>I1</title>
<ellipse fill="#fff7ed" stroke="#ea580c" cx="376.05" cy="-55" rx="23.4" ry="23.4"/>
<text xml:space="preserve" text-anchor="middle" x="376.05" y="-49.5" font-family="Helvetica Neue" font-size="20.00">🔨</text>
</g>
<!-- S&#45;&gt;I1 -->
<g id="edge1" class="edge">
<title>S&#45;&gt;I1</title>
<path fill="none" stroke="#555555" d="M280.83,-92.64C314.16,-92.64 371.05,-92.64 371.05,-92.64 371.05,-92.64 371.05,-87.71 371.05,-87.71"/>
<polygon fill="#555555" stroke="#555555" points="373.85,-87.71 371.05,-79.71 368.25,-87.71 373.85,-87.71"/>
</g>
<!-- I2 -->
<g id="node4" class="node">
<title>I2</title>
<ellipse fill="#fff7ed" stroke="#ea580c" cx="376.05" cy="-138" rx="23.4" ry="23.4"/>
<text xml:space="preserve" text-anchor="middle" x="376.05" y="-132.5" font-family="Helvetica Neue" font-size="20.00">🔨</text>
</g>
<!-- S&#45;&gt;I2 -->
<g id="edge2" class="edge">
<title>S&#45;&gt;I2</title>
<path fill="none" stroke="#555555" d="M278.46,-106.88C309.08,-106.88 362.05,-106.88 362.05,-106.88 362.05,-106.88 362.05,-109.31 362.05,-109.31"/>
<polygon fill="#555555" stroke="#555555" points="359.25,-109.31 362.05,-117.31 364.85,-109.31 359.25,-109.31"/>
</g>
<!-- OUTPUT -->
<g id="node5" class="node">
<title>OUTPUT</title>
<polygon fill="#f0fdf4" stroke="#16a34a" points="550.05,-114 547.05,-118 526.05,-118 523.05,-114 471.45,-114 471.45,-78 550.05,-78 550.05,-114"/>
<text xml:space="preserve" text-anchor="middle" x="510.75" y="-92.3" font-family="Helvetica Neue" font-size="11.00">deliverable/</text>
</g>
<!-- I1&#45;&gt;OUTPUT -->
<g id="edge4" class="edge">
<title>I1&#45;&gt;OUTPUT</title>
<path fill="none" stroke="#555555" d="M381.05,-78.13C381.05,-82.39 381.05,-85.52 381.05,-85.52 381.05,-85.52 461.62,-85.52 461.62,-85.52"/>
<polygon fill="#555555" stroke="#555555" points="461.62,-88.32 469.62,-85.52 461.62,-82.72 461.62,-88.32"/>
</g>
<!-- I2&#45;&gt;OUTPUT -->
<g id="edge5" class="edge">
<title>I2&#45;&gt;OUTPUT</title>
<path fill="none" stroke="#555555" d="M390.05,-118.88C390.05,-109.32 390.05,-99.76 390.05,-99.76 390.05,-99.76 461.71,-99.76 461.71,-99.76"/>
<polygon fill="#555555" stroke="#555555" points="461.71,-102.56 469.71,-99.76 461.71,-96.96 461.71,-102.56"/>
</g>
</g>
</svg>
